<svg width="80" height="80" viewBox="0 0 80 80" fill="none" xmlns="http://www.w3.org/2000/svg">
<g clip-path="url(#clip0)">
<path d="M32.6123 40C32.6123 44.3078 36.117 47.8125 40.4248 47.8125C44.7326 47.8125 48.2373 44.3078 48.2373 40C48.2373 35.6922 44.7326 32.1875 40.4248 32.1875C36.117 32.1875 32.6123 35.6922 32.6123 40ZM40.4248 35.3125C43.0095 35.3125 45.1123 37.4153 45.1123 40C45.1123 42.5847 43.0095 44.6875 40.4248 44.6875C37.8401 44.6875 35.7373 42.5847 35.7373 40C35.7373 37.4153 37.8401 35.3125 40.4248 35.3125Z" fill="white"/>
<path d="M14.867 41.457C10.2507 45.9225 3.3846 53.9719 6.59539 59.5316C7.62976 61.3225 9.51695 62.4698 12.2084 62.9534C12.2738 63.0994 12.3462 63.2425 12.4269 63.3817C13.718 65.6162 16.5891 66.3906 18.8291 65.0972C19.7759 64.5511 20.4894 63.6952 20.869 62.6944C23.1915 62.2902 25.7034 61.6583 28.3673 60.8089C28.5493 61.6823 28.7413 62.5391 28.9443 63.3653C29.1494 64.2006 29.9937 64.7164 30.8344 64.51C31.6726 64.3041 32.1849 63.4578 31.979 62.6198C31.7552 61.7091 31.5444 60.76 31.3474 59.7891C33.4963 59.0052 35.7001 58.1011 37.9234 57.0916C41.6971 58.9936 45.4296 60.5992 49.0474 61.8781C48.0455 66.1641 44.8404 76.875 40.4249 76.875C39.3798 76.875 38.2848 76.198 37.1705 74.8627C36.6177 74.2002 35.6324 74.1109 34.9699 74.6639C34.3073 75.2167 34.2184 76.202 34.7712 76.8647C36.5071 78.9452 38.4093 80 40.4249 80C46.9509 80 50.5043 69.2506 52.0252 62.8644C58.5402 64.8772 69.9977 67.3006 73.3955 61.4119C74.4284 59.6206 74.4777 57.4125 73.5504 54.8395C73.6437 54.7103 73.7329 54.5775 73.8138 54.4377C75.1062 52.1994 74.3365 49.327 72.0976 48.0342C71.149 47.4872 70.0496 47.2984 68.9952 47.4713C67.3444 45.5013 65.3143 43.4575 62.9362 41.372C68.5646 36.5664 78.1712 26.8594 74.481 20.4689C71.0162 14.4673 59.0849 17.1173 52.4868 19.2127C51.0644 12.3734 47.4418 0 40.4249 0C38.3574 0 36.4202 1.06078 34.6549 3.15031C34.496 3.13406 34.336 3.125 34.1749 3.125C31.5902 3.125 29.4874 5.22781 29.4874 7.8125C29.4874 8.90859 29.8738 9.95578 30.5512 10.7823C29.4991 13.6848 28.5944 17.2627 27.899 21.2761C21.1859 19.07 9.03335 16.2456 5.50929 22.35C2.98851 26.7156 6.39507 33.632 14.867 41.457ZM9.30148 57.9686C7.73585 55.2575 10.829 49.6636 17.214 43.5355C20.1059 45.9973 23.3443 48.4053 26.8665 50.7116C27.0966 53.1192 27.404 55.4661 27.784 57.7144C25.3429 58.5075 23.0434 59.1084 20.9162 59.5098C20.8188 59.2289 20.6976 58.9548 20.5463 58.6925C19.2526 56.4564 16.3802 55.6869 14.1427 56.9777C13.0862 57.5872 12.3321 58.5789 11.9957 59.7069C10.8968 59.412 9.83382 58.8903 9.30148 57.9686ZM30.4199 25.4895C31.7688 26.0053 33.1391 26.5697 34.523 27.1789C33.039 28.0138 31.5607 28.8853 29.9348 29.9016C30.0682 28.4042 30.2301 26.9306 30.4199 25.4895ZM50.0743 23.3466C50.5551 26.2969 50.9016 29.3906 51.1146 32.5881C47.968 30.5744 44.7391 28.7119 41.4941 27.0439C44.3971 25.6228 47.2687 24.385 50.0743 23.3466ZM49.699 58.7933C47.0293 57.8339 44.293 56.6892 41.5216 55.3734C44.608 53.8286 47.7132 52.0983 50.9029 50.1078C50.6232 53.1366 50.2205 56.0431 49.699 58.7933ZM54.4788 38.6528C55.7121 39.5436 56.8974 40.4419 58.0269 41.3427C56.868 42.2472 55.6616 43.1427 54.4146 44.0244C54.4613 42.6817 54.4873 41.3366 54.4873 40C54.4874 39.5505 54.484 39.1012 54.4788 38.6528ZM51.306 36.4478C51.3429 37.6175 51.3624 38.808 51.3624 40C51.3624 42.0672 51.3013 44.1548 51.1873 46.2191C47.0707 48.9105 42.5846 51.4458 37.994 53.6148C35.2843 52.203 32.6318 50.6827 29.8449 48.9123C29.6087 45.992 29.4874 42.9984 29.4874 40C29.4874 37.9516 29.5473 35.8653 29.6591 33.7872C32.3134 32.0486 35.144 30.3633 38.0441 28.8116C42.5798 31.0223 47.1046 33.6384 51.306 36.4478ZM30.2374 52.8333C31.6854 53.7102 32.8738 54.397 34.3899 55.2303C33.1727 55.7459 31.9669 56.2258 30.7782 56.6683C30.5748 55.4183 30.3941 54.1381 30.2374 52.8333ZM26.5612 46.7427C24.0399 45.007 21.689 43.222 19.5363 41.4078C21.6279 39.5756 23.9363 37.762 26.4338 35.9878C26.388 37.3327 26.3624 38.6742 26.3624 40C26.3624 42.2589 26.4301 44.5153 26.5612 46.7427ZM17.2671 62.3906C16.5212 62.8214 15.5638 62.5645 15.1316 61.8166C14.7035 61.078 14.9585 60.1148 15.7041 59.6847C16.4516 59.2537 17.4098 59.5116 17.8402 60.2556C18.2794 61.0172 18.002 61.9667 17.2671 62.3906ZM71.109 52.8728C70.6657 53.6381 69.7052 53.8702 68.9727 53.4466C68.2241 53.0147 67.9695 52.06 68.4007 51.3139C68.8385 50.557 69.8002 50.3164 70.5357 50.7408C71.2818 51.1716 71.5385 52.1289 71.109 52.8728ZM66.2148 49.0253C66.0216 49.2486 65.8462 49.4891 65.6954 49.7497C64.3974 51.9963 65.1691 54.8603 67.4102 56.1528C68.4002 56.725 69.6157 56.9389 70.8459 56.6467C71.1404 57.7461 71.2207 58.9283 70.689 59.8505C69.3074 62.2444 63.2241 63.092 52.688 59.7977C53.4095 56.098 53.9212 52.1267 54.2123 47.9605C56.4174 46.4761 58.5221 44.9422 60.4884 43.3838C62.7285 45.3206 64.6466 47.2105 66.2148 49.0253ZM71.7749 22.0312C74.3538 26.4972 64.483 35.9847 60.5121 39.3297C58.6088 37.7877 56.5474 36.252 54.3648 34.7483C54.1671 30.4122 53.7326 26.237 53.0677 22.3067C64.0298 18.7514 70.3494 19.5623 71.7749 22.0312ZM49.5071 20.2267C45.749 21.59 41.8793 23.2977 37.9759 25.3161C35.578 24.1917 33.2027 23.1886 30.8909 22.3259C31.5227 18.5428 32.3398 15.1664 33.2887 12.4128C33.5785 12.4684 33.8744 12.5 34.1749 12.5C36.7596 12.5 38.8624 10.3972 38.8624 7.8125C38.8624 6.59344 38.3807 5.445 37.5726 4.58953C38.3776 3.78516 39.361 3.125 40.4249 3.125C43.2721 3.125 47.1254 8.42703 49.5071 20.2267ZM34.1749 6.25C35.0588 6.25 35.7374 6.97453 35.7374 7.8125C35.7374 8.67406 35.0365 9.375 34.1749 9.375C33.3196 9.375 32.6124 8.67813 32.6124 7.8125C32.6124 6.95094 33.3134 6.25 34.1749 6.25ZM8.2157 23.9125C9.67679 21.3812 16.1615 20.6109 27.4123 24.4059C27.0705 26.8714 26.8096 29.4336 26.6324 32.0481C23.1438 34.4066 19.9694 36.8492 17.1707 39.3273C13.7674 36.2022 5.88742 27.9444 8.2157 23.9125Z" fill="white"/>
<path d="M32.6123 71.25C33.4752 71.25 34.1748 70.5504 34.1748 69.6875C34.1748 68.8246 33.4752 68.125 32.6123 68.125C31.7494 68.125 31.0498 68.8246 31.0498 69.6875C31.0498 70.5504 31.7494 71.25 32.6123 71.25Z" fill="white"/>
</g>
<defs>
<clipPath id="clip0">
<rect width="80" height="80" fill="white"/>
</clipPath>
</defs>
</svg>
