<svg width="80" height="80" viewBox="0 0 80 80" fill="none" xmlns="http://www.w3.org/2000/svg">
<path d="M40 0H22.6667C21.9303 0 21.3333 0.597005 21.3333 1.33333V10.6667H1.33333C0.597005 10.6667 0 11.2637 0 12V78.6667C0 79.403 0.597005 80 1.33333 80H40C40.7363 80 41.3333 79.403 41.3333 78.6667V1.33333C41.3333 0.597005 40.7363 0 40 0ZM38.6667 69.3333H24V66.6667H38.6667V69.3333ZM2.66667 20H21.3333V60H2.66667V20ZM38.6667 14.6667H24V10.6667H38.6667V14.6667ZM2.66667 62.6667H21.3333V66.6667H2.66667V62.6667ZM24 64V17.3333H38.6667V64H24ZM38.6667 2.66667V8H24V2.66667H38.6667ZM21.3333 13.3333V17.3333H2.66667V13.3333H21.3333ZM2.66667 69.3333H21.3333V77.3333H2.66667V69.3333ZM24 77.3333V72H38.6667V77.3333H24Z" fill="white"/>
<path d="M79.957 72.9975L63.957 11.6641C63.8678 11.3204 63.6451 11.0268 63.3378 10.8477C63.0312 10.6694 62.666 10.6205 62.3229 10.7123L42.3229 16.0457C41.6145 16.2345 41.1914 16.9597 41.3763 17.6694L57.3763 79.0027C57.4655 79.3465 57.6888 79.6401 57.996 79.8185C58.3027 79.9962 58.6679 80.0444 59.0104 79.9519L79.0104 74.6186C79.7174 74.4298 80.1399 73.7058 79.957 72.9975ZM46.416 26.4239L63.8398 21.7787L64.4668 24.1785L47.0442 28.8308L46.416 26.4239ZM65.1399 26.7657L72.873 56.4291L55.4557 61.0763L47.7226 31.4109L65.1399 26.7657ZM73.552 59.0105L74.9173 64.2429L57.4934 68.8881L56.1334 63.6576L73.552 59.0105ZM61.7148 13.6336L63.1666 19.2L45.7428 23.8438L44.2923 18.28L61.7148 13.6336ZM59.6184 77.0333L58.1666 71.4669L75.5904 66.8204L77.041 72.3842L59.6184 77.0333Z" fill="white"/>
<path d="M17.3334 24H6.66671C5.93038 24 5.33337 24.597 5.33337 25.3333V36C5.33337 36.7363 5.93038 37.3333 6.66671 37.3333H17.3334C18.0697 37.3333 18.6667 36.7363 18.6667 36V25.3333C18.6667 24.597 18.0697 24 17.3334 24ZM16 34.6667H8.00004V26.6667H16V34.6667Z" fill="white"/>
</svg>
