<svg width="80" height="80" viewBox="0 0 80 80" fill="none" xmlns="http://www.w3.org/2000/svg">
<g clip-path="url(#clip0)">
<path d="M78.3333 38.3335C79.2666 38.3335 80 39.0668 80 40.0002C80 40.9335 79.2666 41.6668 78.3333 41.6668H76.6666V38.3335H78.3333Z" fill="white"/>
<path d="M41.6666 38.3335H76.6666V41.6668H41.6666V38.3335Z" fill="white"/>
<path d="M71.6667 80H40C40.9333 80 41.6667 79.2667 41.6667 78.3333V76.6667H71.6667C74.4333 76.6667 76.6667 74.4333 76.6667 71.6667V41.6667H78.3333C79.2667 41.6667 80 40.9333 80 40V71.6667C80 76.2667 76.2667 80 71.6667 80Z" fill="white"/>
<path d="M80 8.33333V40C80 39.0667 79.2667 38.3333 78.3333 38.3333H76.6667V8.33333C76.6667 5.56667 74.4333 3.33333 71.6667 3.33333H41.6667V1.66667C41.6667 0.733333 40.9333 0 40 0H71.6667C76.2667 0 80 3.73333 80 8.33333Z" fill="white"/>
<path d="M66.6666 20C67.6 20 68.3333 20.7333 68.3333 21.6667C68.3333 22.6 67.6 23.3333 66.6666 23.3333H53.3333C52.4 23.3333 51.6666 22.6 51.6666 21.6667C51.6666 20.7333 52.4 20 53.3333 20H66.6666Z" fill="white"/>
<path d="M66.6666 53.3335C67.6 53.3335 68.3333 54.0668 68.3333 55.0002C68.3333 55.9335 67.6 56.6668 66.6666 56.6668H53.3333C52.4 56.6668 51.6666 55.9335 51.6666 55.0002C51.6666 54.0668 52.4 53.3335 53.3333 53.3335H66.6666Z" fill="white"/>
<path d="M66.6666 63.3335C67.6 63.3335 68.3333 64.0668 68.3333 65.0002C68.3333 65.9335 67.6 66.6668 66.6666 66.6668H53.3333C52.4 66.6668 51.6666 65.9335 51.6666 65.0002C51.6666 64.0668 52.4 63.3335 53.3333 63.3335H66.6666Z" fill="white"/>
<path d="M41.6667 76.6665V78.3332C41.6667 79.2665 40.9334 79.9998 40 79.9998C39.0667 79.9998 38.3334 79.2665 38.3334 78.3332V76.6665H41.6667Z" fill="white"/>
<path d="M38.3334 41.6665H41.6667V76.6665H38.3334V41.6665Z" fill="white"/>
<path d="M38.3334 38.3335H41.6667V41.6668H38.3334V38.3335Z" fill="white"/>
<path d="M38.3334 3.3335H41.6667V38.3335H38.3334V3.3335Z" fill="white"/>
<path d="M41.6667 1.66667V3.33333H38.3334V1.66667C38.3334 0.733333 39.0667 0 40 0C40.9334 0 41.6667 0.733333 41.6667 1.66667Z" fill="white"/>
<path d="M3.33337 38.3335H38.3334V41.6668H3.33337V38.3335Z" fill="white"/>
<path d="M26.6666 20C27.6 20 28.3333 20.7333 28.3333 21.6667C28.3333 22.6 27.6 23.3333 26.6666 23.3333H21.6666V20H26.6666Z" fill="white"/>
<path d="M26.1667 63.8333C26.8333 64.4667 26.8333 65.5333 26.1667 66.1667C25.8667 66.5 25.4333 66.6667 25 66.6667C24.5667 66.6667 24.1333 66.5 23.8333 66.1667L20 62.3333L22.3333 60L26.1667 63.8333Z" fill="white"/>
<path d="M23.8333 53.8335C24.4667 53.1668 25.5333 53.1668 26.1667 53.8335C26.8333 54.4668 26.8333 55.5335 26.1667 56.1668L22.3333 60.0002L20 57.6668L23.8333 53.8335Z" fill="white"/>
<path d="M17.6569 59.9966L19.9903 57.6631L22.3238 59.9966L19.9903 62.33L17.6569 59.9966Z" fill="white"/>
<path d="M21.6667 23.3335V28.3335C21.6667 29.2668 20.9334 30.0002 20 30.0002C19.0667 30.0002 18.3334 29.2668 18.3334 28.3335V23.3335H21.6667Z" fill="white"/>
<path d="M18.3334 20H21.6667V23.3333H18.3334V20Z" fill="white"/>
<path d="M21.6667 15.0002V20.0002H18.3334V15.0002C18.3334 14.0668 19.0667 13.3335 20 13.3335C20.9334 13.3335 21.6667 14.0668 21.6667 15.0002Z" fill="white"/>
<path d="M20 57.6668L17.6667 60.0002L13.8334 56.1668C13.1667 55.5335 13.1667 54.4668 13.8334 53.8335C14.4667 53.1668 15.5334 53.1668 16.1667 53.8335L20 57.6668Z" fill="white"/>
<path d="M18.3333 20V23.3333H13.3333C12.4 23.3333 11.6666 22.6 11.6666 21.6667C11.6666 20.7333 12.4 20 13.3333 20H18.3333Z" fill="white"/>
<path d="M16.1667 66.1667C15.8667 66.5 15.4334 66.6667 15 66.6667C14.5667 66.6667 14.1334 66.5 13.8334 66.1667C13.1667 65.5333 13.1667 64.4667 13.8334 63.8333L17.6667 60L20 62.3333L16.1667 66.1667Z" fill="white"/>
<path d="M3.33333 38.3335V41.6668H1.66667C0.733333 41.6668 0 40.9335 0 40.0002C0 39.0668 0.733333 38.3335 1.66667 38.3335H3.33333Z" fill="white"/>
<path d="M0 8.33333C0 3.73333 3.73333 0 8.33333 0H40C39.0667 0 38.3333 0.733333 38.3333 1.66667V3.33333H8.33333C5.56667 3.33333 3.33333 5.56667 3.33333 8.33333V38.3333H1.66667C0.733333 38.3333 0 39.0667 0 40V8.33333Z" fill="white"/>
<path d="M3.33333 71.6667C3.33333 74.4333 5.56667 76.6667 8.33333 76.6667H38.3333V78.3333C38.3333 79.2667 39.0667 80 40 80H8.33333C3.73333 80 0 76.2667 0 71.6667V40C0 40.9333 0.733333 41.6667 1.66667 41.6667H3.33333V71.6667Z" fill="white"/>
</g>
<defs>
<clipPath id="clip0">
<rect width="80" height="80" fill="white"/>
</clipPath>
</defs>
</svg>
