<svg width="20" height="20" viewBox="0 0 20 20" fill="none" xmlns="http://www.w3.org/2000/svg">
<g clip-path="url(#clip0)">
<path d="M10.8336 19.1536C15.8876 19.1536 20 15.0413 20 9.98734C20 4.93333 15.8876 0.820908 10.8336 0.820908C9.07612 0.820908 7.36627 1.32169 5.88881 2.26999C5.59875 2.45675 5.51376 2.8434 5.70052 3.13422C5.88789 3.42504 6.27377 3.50912 6.5646 3.32251C7.83958 2.50329 9.31613 2.07087 10.8336 2.07087C15.1985 2.07087 18.75 5.62239 18.75 9.98734C18.75 14.3521 15.1985 17.9037 10.8336 17.9037C6.46877 17.9037 2.91725 14.3521 2.91725 9.98734C2.91725 9.72642 2.92976 9.4681 2.95387 9.21405C2.98713 8.86982 2.73552 8.56481 2.39221 8.53154C2.04722 8.49981 1.74312 8.74989 1.70971 9.0932C1.68148 9.38738 1.66729 9.68568 1.66729 9.98734C1.66729 15.0413 5.77956 19.1536 10.8336 19.1536Z" fill="white"/>
<path d="M9.79207 12.0706C9.95197 12.0706 10.112 12.0097 10.2336 11.8873L13.9835 8.13742C14.2277 7.89313 14.2277 7.49733 13.9835 7.2532C13.7394 7.00907 13.3436 7.00907 13.0995 7.2532L9.79115 10.5615L1.06737 1.83756C0.82308 1.59343 0.427279 1.59343 0.183146 1.83756C-0.0609865 2.0817 -0.0609865 2.4775 0.183146 2.72163L9.34958 11.8881C9.4721 12.0097 9.63201 12.0706 9.79207 12.0706Z" fill="white"/>
</g>
<defs>
<clipPath id="clip0">
<rect width="20" height="20" fill="white" transform="matrix(-1 0 0 1 20 0)"/>
</clipPath>
</defs>
</svg>
