<svg width="80" height="80" viewBox="0 0 80 80" fill="none" xmlns="http://www.w3.org/2000/svg">
<path d="M20.928 41.8125C21.5151 41.8125 22.0891 41.6384 22.5773 41.3122C23.0655 40.986 23.4461 40.5223 23.6708 39.9799C23.8954 39.4374 23.9542 38.8405 23.8397 38.2646C23.7251 37.6887 23.4424 37.1597 23.0272 36.7445C22.612 36.3293 22.083 36.0466 21.5072 35.932C20.9313 35.8175 20.3344 35.8763 19.7919 36.101C19.2494 36.3257 18.7858 36.7062 18.4596 37.1944C18.1333 37.6826 17.9592 38.2566 17.9592 38.8438C17.9602 39.6308 18.2733 40.3854 18.8299 40.9419C19.3864 41.4984 20.1409 41.8115 20.928 41.8125ZM20.928 38.0625C21.0825 38.0625 21.2335 38.1083 21.362 38.1942C21.4905 38.28 21.5906 38.402 21.6498 38.5448C21.7089 38.6875 21.7244 38.8446 21.6942 38.9962C21.6641 39.1477 21.5897 39.2869 21.4804 39.3962C21.3712 39.5054 21.2319 39.5799 21.0804 39.61C20.9288 39.6401 20.7718 39.6247 20.629 39.5655C20.4863 39.5064 20.3642 39.4063 20.2784 39.2778C20.1926 39.1493 20.1467 38.9983 20.1467 38.8438C20.1467 38.6366 20.229 38.4378 20.3756 38.2913C20.5221 38.1448 20.7208 38.0625 20.928 38.0625Z" fill="white"/>
<path d="M16.7056 70.481C17.2927 70.481 17.8667 70.3068 18.3549 69.9806C18.8431 69.6544 19.2236 69.1908 19.4483 68.6483C19.673 68.1058 19.7318 67.5089 19.6173 66.933C19.5027 66.3572 19.22 65.8282 18.8048 65.413C18.3896 64.9978 17.8606 64.7151 17.2847 64.6005C16.7089 64.486 16.1119 64.5447 15.5695 64.7694C15.027 64.9941 14.5634 65.3747 14.2371 65.8629C13.9109 66.3511 13.7368 66.925 13.7368 67.5122C13.7378 68.2993 14.0509 69.0538 14.6074 69.6103C15.164 70.1669 15.9185 70.48 16.7056 70.481ZM16.7056 66.731C16.8601 66.731 17.0111 66.7768 17.1396 66.8626C17.2681 66.9485 17.3682 67.0705 17.4273 67.2132C17.4865 67.356 17.5019 67.5131 17.4718 67.6646C17.4417 67.8162 17.3673 67.9554 17.258 68.0646C17.1487 68.1739 17.0095 68.2483 16.858 68.2784C16.7064 68.3086 16.5494 68.2931 16.4066 68.234C16.2638 68.1749 16.1418 68.0747 16.056 67.9462C15.9701 67.8178 15.9243 67.6667 15.9243 67.5122C15.9245 67.3051 16.0068 67.1064 16.1533 66.96C16.2998 66.8135 16.4984 66.7311 16.7056 66.731Z" fill="white"/>
<path d="M23.5848 54.2097C23.0106 56.4699 22.9601 58.8313 23.4373 61.1139C23.9145 63.3966 24.9067 65.54 26.3383 67.3809C27.7699 69.2217 29.603 70.7112 31.6978 71.7358C33.7927 72.7604 36.0938 73.293 38.4258 73.293C40.7577 73.293 43.0589 72.7604 45.1537 71.7358C47.2485 70.7112 49.0817 69.2217 50.5132 67.3809C51.9448 65.54 52.9371 63.3966 53.4143 61.1139C53.8914 58.8313 53.841 56.4699 53.2667 54.2097C53.2063 53.974 53.069 53.7652 52.8766 53.6162C52.6841 53.4672 52.4476 53.3867 52.2042 53.3872H24.6417C24.3993 53.3879 24.1641 53.4691 23.9728 53.6179C23.7815 53.7668 23.6451 53.9749 23.5848 54.2097ZM25.5223 55.5747H51.3292C51.6818 57.4692 51.6129 59.4181 51.1274 61.283C50.6418 63.1479 49.7516 64.883 48.5199 66.365C47.2883 67.8471 45.7454 69.0397 44.0008 69.8583C42.2562 70.6768 40.3528 71.1012 38.4258 71.1012C36.4987 71.1012 34.5953 70.6768 32.8508 69.8583C31.1062 69.0397 29.5633 67.8471 28.3316 66.365C27.0999 64.883 26.2097 63.1479 25.7242 61.283C25.2387 59.4181 25.1698 57.4692 25.5223 55.5747Z" fill="white"/>
<path d="M35.625 65.8076C36.2122 65.8076 36.7861 65.6335 37.2744 65.3073C37.7626 64.9811 38.1431 64.5174 38.3678 63.975C38.5925 63.4325 38.6513 62.8356 38.5367 62.2597C38.4222 61.6838 38.1394 61.1548 37.7242 60.7396C37.309 60.3245 36.7801 60.0417 36.2042 59.9272C35.6283 59.8126 35.0314 59.8714 34.4889 60.0961C33.9464 60.3208 33.4828 60.7013 33.1566 61.1895C32.8304 61.6777 32.6562 62.2517 32.6562 62.8389C32.6572 63.6259 32.9703 64.3805 33.5269 64.937C34.0834 65.4935 34.8379 65.8066 35.625 65.8076ZM35.625 62.0576C35.7795 62.0576 35.9306 62.1034 36.059 62.1893C36.1875 62.2751 36.2877 62.3971 36.3468 62.5399C36.4059 62.6827 36.4214 62.8397 36.3912 62.9913C36.3611 63.1428 36.2867 63.282 36.1774 63.3913C36.0682 63.5006 35.929 63.575 35.7774 63.6051C35.6259 63.6353 35.4688 63.6198 35.326 63.5606C35.1833 63.5015 35.0613 63.4014 34.9754 63.2729C34.8896 63.1444 34.8438 62.9934 34.8438 62.8389C34.8441 62.6318 34.9265 62.4332 35.0729 62.2868C35.2194 62.1404 35.4179 62.0579 35.625 62.0576Z" fill="white"/>
<path d="M45.928 62.1357C46.5151 62.1357 47.0891 61.9616 47.5773 61.6354C48.0655 61.3092 48.4461 60.8456 48.6708 60.3031C48.8954 59.7606 48.9542 59.1637 48.8397 58.5878C48.7251 58.0119 48.4424 57.483 48.0272 57.0678C47.612 56.6526 47.083 56.3698 46.5072 56.2553C45.9313 56.1407 45.3344 56.1995 44.7919 56.4242C44.2494 56.6489 43.7858 57.0294 43.4596 57.5176C43.1333 58.0059 42.9592 58.5798 42.9592 59.167C42.9602 59.954 43.2733 60.7086 43.8299 61.2651C44.3864 61.8217 45.1409 62.1347 45.928 62.1357ZM45.928 58.3857C46.0825 58.3857 46.2335 58.4316 46.362 58.5174C46.4905 58.6033 46.5906 58.7253 46.6498 58.868C46.7089 59.0108 46.7244 59.1679 46.6942 59.3194C46.6641 59.471 46.5897 59.6102 46.4804 59.7194C46.3711 59.8287 46.2319 59.9031 46.0804 59.9332C45.9289 59.9634 45.7718 59.9479 45.629 59.8888C45.4863 59.8296 45.3642 59.7295 45.2784 59.601C45.1926 59.4726 45.1467 59.3215 45.1467 59.167C45.1469 58.9598 45.2293 58.7612 45.3757 58.6147C45.5222 58.4683 45.7208 58.3859 45.928 58.3857Z" fill="white"/>
<path d="M37.5 48.8364C38.0872 48.8364 38.6611 48.6623 39.1494 48.3361C39.6376 48.0099 40.0181 47.5462 40.2428 47.0038C40.4675 46.4613 40.5263 45.8644 40.4117 45.2885C40.2972 44.7126 40.0144 44.1836 39.5992 43.7685C39.184 43.3533 38.6551 43.0705 38.0792 42.956C37.5033 42.8414 36.9064 42.9002 36.3639 43.1249C35.8214 43.3496 35.3578 43.7301 35.0316 44.2183C34.7054 44.7065 34.5312 45.2805 34.5312 45.8677C34.5322 46.6547 34.8453 47.4093 35.4019 47.9658C35.9584 48.5223 36.7129 48.8354 37.5 48.8364ZM37.5 45.0864C37.6545 45.0864 37.8056 45.1322 37.934 45.2181C38.0625 45.3039 38.1627 45.4259 38.2218 45.5687C38.2809 45.7115 38.2964 45.8685 38.2662 46.0201C38.2361 46.1716 38.1617 46.3108 38.0524 46.4201C37.9432 46.5294 37.804 46.6038 37.6524 46.6339C37.5009 46.6641 37.3438 46.6486 37.201 46.5895C37.0583 46.5303 36.9363 46.4302 36.8504 46.3017C36.7646 46.1732 36.7188 46.0222 36.7188 45.8677C36.7189 45.6605 36.8013 45.4619 36.9478 45.3154C37.0942 45.169 37.2929 45.0866 37.5 45.0864Z" fill="white"/>
<path d="M57.9681 2.96875C54.9352 2.96995 51.9464 3.69538 49.2504 5.08469C46.5544 6.47399 44.2291 8.487 42.4681 10.9563H29.9931C29.2215 10.9575 28.4809 11.2595 27.9286 11.7983C27.3763 12.337 27.056 13.07 27.0356 13.8412C27.0153 14.6125 27.2965 15.3613 27.8196 15.9284C28.3427 16.4955 29.0664 16.8362 29.8368 16.8781V40.9569C28.9052 41.4312 28.0147 41.982 27.1743 42.6038V30.2537C27.8165 30 28.35 29.53 28.6827 28.9249C29.0155 28.3198 29.1266 27.6176 28.9969 26.9393C28.8671 26.2611 28.5048 25.6494 27.9723 25.2097C27.4397 24.7701 26.7705 24.5302 26.0799 24.5312H14.2674C13.5768 24.5302 12.9074 24.7703 12.3749 25.2102C11.8424 25.65 11.4801 26.2619 11.3506 26.9403C11.2211 27.6187 11.3325 28.321 11.6656 28.9261C11.9986 29.5311 12.5325 30.0009 13.1749 30.2544V55.9775L4.26493 67.3125C3.56763 68.1984 3.1338 69.2628 3.01306 70.3837C2.89232 71.5047 3.08955 72.637 3.5822 73.6511C4.07484 74.6652 4.84299 75.5201 5.79878 76.1181C6.75456 76.7161 7.85937 77.033 8.98681 77.0325H31.3618C32.2312 77.0348 33.0905 76.8457 33.8787 76.4787C38.4237 77.5917 43.2192 76.9941 47.352 74.7998C51.4849 72.6054 54.6662 68.9677 56.2902 64.5793C57.9143 60.1909 57.8675 55.3585 56.1588 51.0024C54.4501 46.6462 51.1989 43.0708 47.0243 40.9569V37.625C49.4754 39.3453 52.2973 40.4639 55.2614 40.8899C58.2254 41.3159 61.2481 41.0375 64.0845 40.0771C66.9208 39.1168 69.491 37.5016 71.5865 35.3624C73.682 33.2233 75.2439 30.6204 76.1457 27.7649C77.0474 24.9094 77.2635 21.8815 76.7765 18.9269C76.2895 15.9722 75.1131 13.1739 73.3426 10.7589C71.5722 8.34377 69.2575 6.37989 66.5863 5.02643C63.9151 3.67296 60.9626 2.96802 57.9681 2.96875ZM29.2118 13.925C29.2109 13.8223 29.2308 13.7205 29.2702 13.6257C29.3096 13.5308 29.3678 13.4449 29.4412 13.3731C29.5136 13.3005 29.5996 13.2428 29.6943 13.2035C29.789 13.1641 29.8905 13.1438 29.9931 13.1438H41.1118C40.8422 13.6517 40.5954 14.1725 40.3712 14.7063H29.9962C29.8934 14.7066 29.7915 14.6866 29.6964 14.6475C29.6012 14.6084 29.5148 14.5509 29.4419 14.4784C29.3691 14.4058 29.3112 14.3195 29.2717 14.2246C29.2323 14.1296 29.2119 14.0278 29.2118 13.925ZM14.2668 26.7188H26.0793C26.2865 26.7188 26.4852 26.8011 26.6317 26.9476C26.7782 27.0941 26.8606 27.2928 26.8606 27.5C26.8606 27.7072 26.7782 27.9059 26.6317 28.0524C26.4852 28.1989 26.2865 28.2812 26.0793 28.2812H14.2668C14.0596 28.2812 13.8609 28.1989 13.7144 28.0524C13.5679 27.9059 13.4856 27.7072 13.4856 27.5C13.4856 27.2928 13.5679 27.0941 13.7144 26.9476C13.8609 26.8011 14.0596 26.7188 14.2668 26.7188ZM8.98681 74.8438C8.27012 74.8436 7.56793 74.6418 6.96053 74.2614C6.35314 73.8809 5.86506 73.3373 5.5521 72.6925C5.23915 72.0478 5.11395 71.328 5.19082 70.6154C5.2677 69.9028 5.54354 69.2263 5.98681 68.6631L15.1306 57.0319C15.282 56.8392 15.3643 56.6013 15.3643 56.3562V30.4688H24.9893V44.4812C22.7547 46.6997 21.1059 49.4383 20.191 52.4513C19.2761 55.4643 19.1236 58.6573 19.7474 61.7438H13.9374C13.7718 61.7437 13.6082 61.7813 13.4593 61.8537C13.3103 61.9262 13.1797 62.0315 13.0774 62.1619L7.20243 69.6362C6.94221 69.9698 6.781 70.3698 6.73719 70.7906C6.69337 71.2114 6.76872 71.6361 6.95463 72.0161C7.14054 72.3962 7.42954 72.7163 7.78864 72.94C8.14774 73.1637 8.56248 73.2819 8.98556 73.2812H27.0918C27.8798 73.865 28.7114 74.3873 29.5793 74.8438H8.98681ZM24.6262 71.0938H8.98681L8.92056 71.0531L8.92806 70.9819L14.4681 63.9313H20.3287C21.214 66.6069 22.6812 69.053 24.6249 71.0938H24.6262ZM45.4743 42.6375C49.3098 44.4061 52.3427 47.5486 53.9739 51.4445C55.6051 55.3404 55.7161 59.7063 54.2849 63.68C52.8537 67.6538 49.9844 70.9463 46.2437 72.9075C42.503 74.8686 38.1629 75.3557 34.0806 74.2725C34.0674 74.2681 34.0543 74.2644 34.0406 74.2613C30.6901 73.3599 27.6989 71.4475 25.4748 68.7846C23.2506 66.1216 21.9016 62.8376 21.6115 59.3802C21.3215 55.9227 22.1045 52.4599 23.8539 49.4636C25.6033 46.4673 28.2339 44.0832 31.3874 42.6363C31.5775 42.5486 31.7384 42.4084 31.8513 42.2322C31.9642 42.056 32.0242 41.8511 32.0243 41.6419V16.8938H39.6149C38.6774 20.2265 38.6682 23.7521 39.5886 27.0897C40.5089 30.4273 42.3236 33.45 44.8368 35.8313V41.6437C44.8369 41.853 44.8971 42.0578 45.0101 42.234C45.123 42.4101 45.2842 42.5501 45.4743 42.6375ZM57.9681 38.9062C54.6305 38.9062 51.3679 37.9165 48.5928 36.0623C45.8177 34.2081 43.6548 31.5725 42.3776 28.489C41.1004 25.4055 40.7662 22.0125 41.4173 18.7391C42.0684 15.4657 43.6756 12.4588 46.0356 10.0988C48.3956 7.73881 51.4025 6.13162 54.6759 5.4805C57.9493 4.82937 61.3423 5.16355 64.4258 6.44078C67.5093 7.71801 70.1449 9.88092 71.9991 12.656C73.8534 15.4311 74.8431 18.6937 74.8431 22.0312C74.8381 26.5053 73.0586 30.7946 69.895 33.9582C66.7314 37.1218 62.4421 38.9013 57.9681 38.9062Z" fill="white"/>
<path d="M71.678 25.962C71.4063 25.8607 71.1054 25.8714 70.8415 25.9919C70.5777 26.1124 70.3725 26.3327 70.2711 26.6045C69.8295 27.7882 69.219 28.9018 68.4586 29.9107C68.3722 30.0256 68.3093 30.1564 68.2734 30.2957C68.2375 30.4349 68.2294 30.5799 68.2496 30.7222C68.2697 30.8646 68.3177 31.0016 68.3908 31.1254C68.4639 31.2492 68.5606 31.3574 68.6755 31.4439C68.7904 31.5303 68.9212 31.5932 69.0605 31.6291C69.1997 31.665 69.3446 31.6731 69.487 31.6529C69.6294 31.6328 69.7664 31.5848 69.8902 31.5117C70.014 31.4387 70.1222 31.3419 70.2086 31.227C71.0957 30.0495 71.8081 28.75 72.3236 27.3689C72.3737 27.2341 72.3968 27.0908 72.3914 26.9471C72.3861 26.8034 72.3525 26.6622 72.2925 26.5316C72.2325 26.4009 72.1474 26.2833 72.042 26.1856C71.9365 26.0879 71.8129 26.0119 71.678 25.962Z" fill="white"/>
<path d="M68.515 21.5347C68.6813 21.4386 68.8193 21.3005 68.9153 21.1342C69.0113 20.9678 69.0619 20.7792 69.0619 20.5872V14.8122C69.0618 14.6202 69.0113 14.4317 68.9153 14.2655C68.8193 14.0993 68.6812 13.9613 68.515 13.8653L63.515 10.9778C63.3487 10.882 63.1601 10.8315 62.9681 10.8315C62.7762 10.8315 62.5876 10.882 62.4213 10.9778L57.9681 13.549L53.515 10.9778C53.3487 10.882 53.1601 10.8315 52.9681 10.8315C52.7762 10.8315 52.5876 10.882 52.4213 10.9778L47.4213 13.8653C47.2551 13.9613 47.1172 14.0994 47.0214 14.2656C46.9255 14.4318 46.875 14.6203 46.875 14.8122V20.5872C46.875 20.7792 46.9256 20.9678 47.0215 21.1342C47.1175 21.3005 47.2556 21.4386 47.4219 21.5347L51.875 24.1059V29.2497C51.8751 29.4417 51.9256 29.6303 52.0216 29.7966C52.1176 29.9629 52.2556 30.101 52.4219 30.1972L57.4219 33.084C57.5882 33.1799 57.7768 33.2303 57.9688 33.2303C58.1607 33.2303 58.3493 33.1799 58.5156 33.084L63.5156 30.1972C63.6819 30.101 63.8199 29.9629 63.9159 29.7966C64.0119 29.6303 64.0624 29.4417 64.0625 29.2497V24.1059L68.515 21.5347ZM62.9681 13.1872L66.8744 15.4434V19.9559L62.9681 22.2115L59.0625 19.9559V15.4459L62.9681 13.1872ZM49.0625 15.4459L52.9688 13.1897L56.875 15.4459V19.9559L52.9688 22.2115L49.0625 19.9559V15.4459ZM61.875 28.6159L57.9688 30.8722L54.0625 28.6159V24.1059L57.9688 21.8503L61.875 24.1059V28.6159Z" fill="white"/>
</svg>
