<svg width="80" height="80" viewBox="0 0 80 80" fill="none" xmlns="http://www.w3.org/2000/svg">
<path d="M46.4441 31.9141C45.1495 31.9141 44.1003 30.8649 44.1003 29.5703V6.40625H35.8997V29.5703C35.8997 30.8649 34.8505 31.9141 33.5559 31.9141H0V40.1147H33.5559C34.8505 40.1147 35.8997 41.1639 35.8997 42.4585V65.6165H44.1003V42.4585C44.1003 41.1639 45.1495 40.1147 46.4441 40.1147H80V31.9141H46.4441Z" fill="white"/>
<path d="M48.7878 23.9124L66.1023 6.5979C65.2844 6.47156 64.4464 6.40625 63.5937 6.40625H48.7878V23.9124Z" fill="white"/>
<path d="M52.1021 27.2266H80V22.8125C80 16.4697 76.3818 10.957 71.1017 8.22754L52.1021 27.2266Z" fill="white"/>
<path d="M52.0929 44.8022L71.0492 63.8226C76.358 61.1029 80 55.5737 80 49.2102V44.8022H52.0929Z" fill="white"/>
<path d="M31.2122 23.9124V6.40625H16.4062C15.5536 6.40625 14.7156 6.47156 13.8977 6.5979L31.2122 23.9124Z" fill="white"/>
<path d="M48.7878 48.126V65.6162H63.5937C64.4244 65.6162 65.2405 65.554 66.0376 65.4343L48.7878 48.126Z" fill="white"/>
<path d="M27.8979 27.2266L8.89832 8.22754C3.61816 10.9564 0 16.4697 0 22.8125V27.2266H27.8979Z" fill="white"/>
<path d="M27.8979 44.8022H0V49.2102C0 55.5548 3.62 61.0687 8.90259 63.7976L27.8979 44.8022Z" fill="white"/>
<path d="M31.2122 48.1172L13.9032 65.4262C14.7192 65.5513 15.5554 65.6166 16.4062 65.6166H18.8409L24.5471 72.856C24.9921 73.4199 25.6702 73.7489 26.3879 73.7489C27.1057 73.7489 27.7844 73.4199 28.2288 72.856L31.2122 69.0712V48.1172Z" fill="white"/>
</svg>
