<svg width="80" height="80" viewBox="0 0 80 80" fill="none" xmlns="http://www.w3.org/2000/svg">
<g clip-path="url(#clip0)">
<path d="M78.9838 -0.15625H1.32812C0.680542 -0.15625 0.15625 0.368042 0.15625 1.01562V50.2344C0.15625 50.8813 0.680542 51.4062 1.32812 51.4062H16.5625V54.9219C16.5625 55.5688 17.0868 56.0938 17.7344 56.0938H21.25V76.2646L17.3639 77.5598C16.7499 77.7643 16.4178 78.4283 16.6223 79.0424C16.7865 79.5331 17.2437 79.8438 17.7344 79.8438C17.8571 79.8438 17.9822 79.8242 18.1049 79.7833L22.7924 78.2208C23.2709 78.0615 23.5938 77.6135 23.5938 77.1094V56.0938H30.625V77.1094C30.625 77.6135 30.9473 78.0615 31.4264 78.2208L36.1139 79.7833C36.2366 79.8242 36.3617 79.8438 36.4844 79.8438C36.9751 79.8438 37.4323 79.5331 37.5958 79.0424C37.8009 78.4283 37.4689 77.7643 36.8549 77.5598L32.9688 76.2646V56.0938H36.4844C37.1313 56.0938 37.6562 55.5688 37.6562 54.9219V51.4062H78.9838C79.6313 51.4062 80.1556 50.8813 80.1556 50.2344V1.01562C80.1556 0.368042 79.6313 -0.15625 78.9838 -0.15625ZM16.5625 47.0569V49.0625H2.5V46.7188H16.5698C16.5662 46.8311 16.5625 46.944 16.5625 47.0569ZM35.3125 53.75H18.9062V47.0569C18.9062 45.2307 19.5166 43.4662 20.6311 42.0312H33.5876C34.7021 43.4662 35.3125 45.2307 35.3125 47.0569V53.75ZM21.25 39.6875V29.9219C21.25 28.8446 22.1259 27.9688 23.2031 27.9688H31.0156C32.0923 27.9688 32.9688 28.8446 32.9688 29.9219V39.6875H21.25ZM77.8125 49.0625H37.6562V47.0569C37.6562 46.944 37.6526 46.8311 37.6489 46.7188H77.8125V49.0625ZM77.8125 44.375H37.309C36.9324 42.9425 36.2555 41.5973 35.3125 40.4309V31.0938H43.5156C45.4541 31.0938 47.0312 29.5166 47.0312 27.5781C47.0312 25.6396 45.4541 24.0625 43.5156 24.0625H42.3438V19.7656C42.3438 19.118 41.8188 18.5938 41.1719 18.5938C40.5243 18.5938 40 19.118 40 19.7656V25.2344C40 25.8813 40.5243 26.4062 41.1719 26.4062H43.5156C44.162 26.4062 44.6875 26.9318 44.6875 27.5781C44.6875 28.2245 44.162 28.75 43.5156 28.75H35.1483C34.6368 26.9489 32.9785 25.625 31.0156 25.625H23.2031C21.2555 25.625 19.6075 26.9281 19.082 28.7073C12.4384 28.197 7.1875 22.6318 7.1875 15.8594C7.1875 15.2118 6.66321 14.6875 6.01562 14.6875C5.36804 14.6875 4.84375 15.2118 4.84375 15.8594C4.84375 23.8654 11.0516 30.4486 18.9062 31.0492V40.4309C17.9633 41.5967 17.2864 42.9419 16.9092 44.3744H2.5V2.1875H77.8125V44.375Z" fill="white"/>
<path d="M18.9062 23.2812C20.2399 23.2812 21.4844 22.7106 22.3584 21.759C23.7 22.7161 25.3394 23.2812 27.1094 23.2812C31.6321 23.2812 35.3125 19.6014 35.3125 15.0781C35.3125 10.5548 31.6321 6.875 27.1094 6.875C22.984 6.875 19.5618 9.93652 18.9911 13.9062H18.9062C16.3214 13.9062 14.2188 16.0089 14.2188 18.5938C14.2188 21.1786 16.3214 23.2812 18.9062 23.2812ZM27.1094 9.21875C27.9816 9.21875 28.8092 9.41162 29.5538 9.75525C27.4109 12.0886 24.5319 13.5278 21.3824 13.8403C21.9525 11.2024 24.303 9.21875 27.1094 9.21875ZM31.4532 11.1499C32.3944 12.1899 32.9688 13.5681 32.9688 15.0781C32.9688 18.3087 30.34 20.9375 27.1094 20.9375C24.2609 20.9375 21.8823 18.894 21.3586 16.1969C25.2692 15.8759 28.8452 14.0881 31.4532 11.1499ZM18.9062 16.25H18.9911C19.2004 17.7051 19.7931 19.0375 20.6635 20.1422C20.2252 20.639 19.5886 20.9375 18.9062 20.9375C17.6141 20.9375 16.5625 19.8859 16.5625 18.5938C16.5625 17.3016 17.6135 16.25 18.9062 16.25Z" fill="white"/>
<path d="M63.8281 20.9375H70.7812C73.3655 20.9375 75.4688 18.8348 75.4688 16.25C75.4688 14.5477 74.5569 13.0548 73.1958 12.2333C73.8824 11.4178 74.2969 10.3656 74.2969 9.21875C74.2969 6.63391 72.1936 4.53125 69.6094 4.53125H63.8281C63.1805 4.53125 62.6562 5.05554 62.6562 5.70312V19.7656C62.6562 20.4126 63.1805 20.9375 63.8281 20.9375ZM65 6.875H69.6094C70.9015 6.875 71.9531 7.92663 71.9531 9.21875C71.9531 10.5109 70.9015 11.5625 69.6094 11.5625H65V6.875ZM65 13.9062H70.7812C72.0734 13.9062 73.125 14.9579 73.125 16.25C73.125 17.5421 72.0734 18.5937 70.7812 18.5937H65V13.9062Z" fill="white"/>
<path d="M45.359 20.8252C45.9438 21.1011 46.6426 20.8508 46.9191 20.2661L48.8155 16.25H56.1842L58.0806 20.2661C58.2808 20.6897 58.7019 20.9375 59.1414 20.9375C59.3086 20.9375 59.4789 20.9015 59.6407 20.8252C60.226 20.5487 60.4762 19.8505 60.2004 19.2651L53.5597 5.20264C53.3656 4.79309 52.953 4.53125 52.4995 4.53125C52.0467 4.53125 51.6335 4.79309 51.44 5.20264L44.7993 19.2651C44.5235 19.8505 44.7737 20.5487 45.359 20.8252ZM52.5002 8.44726L55.0777 13.9062H49.922L52.5002 8.44726Z" fill="white"/>
</g>
<defs>
<clipPath id="clip0">
<rect width="80" height="80" fill="white"/>
</clipPath>
</defs>
</svg>
