<svg width="80" height="80" viewBox="0 0 80 80" fill="none" xmlns="http://www.w3.org/2000/svg">
<g clip-path="url(#clip0)">
<path d="M16.5884 0C13.0656 0 10.1995 2.866 10.1995 6.38895V74.09C10.1995 77.3487 12.8507 80 16.1095 80H69.8007V0H16.5884ZM15.2639 2.89567V67.2836C14.3811 67.4105 13.5608 67.7333 12.8484 68.2065V6.38895C12.8484 4.79357 13.8545 3.432 15.2639 2.89567ZM67.1517 77.351H16.1095C14.3114 77.351 12.8484 75.8881 12.8484 74.09V73.1321C12.8484 71.334 14.3114 69.8711 16.1095 69.8711H67.1517V77.351ZM17.9129 67.2221V2.64897H67.1517V67.2221H17.9129Z" fill="white"/>
<path d="M42.8392 47.7174L41.5276 46.9937L58.1087 21.0826L55.6637 10.9922L45.8235 14.3037L32.7433 42.1467L31.4317 41.423C30.791 41.0696 29.9855 41.302 29.6321 41.9427C29.2788 42.583 29.5113 43.3887 30.1519 43.7421L32.7447 45.1729L28.6409 52.6099L27.8494 52.1732C27.2087 51.8196 26.4032 52.0522 26.0498 52.6929C25.6965 53.3333 25.9291 54.1389 26.5696 54.4923L34.3747 58.7991C34.5776 58.9111 34.7969 58.9643 35.0134 58.9643C35.4802 58.9643 35.9328 58.7172 36.1742 58.2794C36.5276 57.6391 36.295 56.8334 35.6545 56.4801L34.8628 56.0431L38.9666 48.6061L41.5594 50.0367C41.7623 50.1487 41.9816 50.2018 42.1981 50.2018C42.6649 50.2018 43.1175 49.9548 43.3589 49.517C43.7123 48.8766 43.4795 48.0708 42.8392 47.7174ZM47.7403 16.4536L53.7699 14.4245L55.2679 20.6074L39.2034 45.7113L35.0675 43.4289L47.7403 16.4536ZM36.6473 47.3263L32.5435 54.7632L30.9603 53.8895L35.0641 46.4527L36.6473 47.3263Z" fill="white"/>
</g>
<defs>
<clipPath id="clip0">
<rect width="80" height="80" fill="white"/>
</clipPath>
</defs>
</svg>
