<svg width="80" height="80" viewBox="0 0 80 80" fill="none" xmlns="http://www.w3.org/2000/svg">
<path d="M74.6653 1.33301H5.33469C2.39328 1.33301 0 3.72645 0 6.6677V50.6663C0 51.4022 0.597344 51.9996 1.33328 51.9996H78.6666C79.4025 51.9996 79.9998 51.4022 79.9998 50.6663V6.6677C80 3.72645 77.6067 1.33301 74.6653 1.33301ZM77.3333 49.333H2.66672V6.6677C2.66672 5.19566 3.86406 3.99973 5.33469 3.99973H74.6653C76.1359 3.99973 77.3333 5.19566 77.3333 6.6677V49.333Z" fill="white"/>
<path d="M78.6667 49.3325H1.33328C0.597344 49.3325 0 49.9299 0 50.6658V57.3311C0 60.2725 2.39328 62.6658 5.33469 62.6658H74.6653C77.6067 62.6658 80 60.2725 80 57.3311V50.6658C80 49.9299 79.4027 49.3325 78.6667 49.3325ZM77.3333 57.3313C77.3333 58.8033 76.1359 59.9992 74.6653 59.9992H5.33469C3.86406 59.9992 2.66672 58.8033 2.66672 57.3313V51.9992H77.3334V57.3313H77.3333Z" fill="white"/>
<path d="M44 54.6665H36C35.2641 54.6665 34.6667 55.2638 34.6667 55.9998C34.6667 56.7357 35.2641 57.3331 36 57.3331H44C44.736 57.3331 45.3333 56.7357 45.3333 55.9998C45.3333 55.2638 44.736 54.6665 44 54.6665Z" fill="white"/>
<path d="M73.3333 6.6665H6.66678C5.93084 6.6665 5.3335 7.26385 5.3335 7.99979V50.6665C5.3335 51.4024 5.93084 51.9998 6.66678 51.9998H73.3335C74.0694 51.9998 74.6668 51.4024 74.6668 50.6665V7.99979C74.6668 7.26385 74.0694 6.6665 73.3333 6.6665ZM72.0001 49.3331H8.00006V9.33307H72.0001V49.3331Z" fill="white"/>
<path d="M57.3333 70.6665H22.6667C20.4614 70.6665 18.6667 72.4612 18.6667 74.6665C18.6667 76.8718 20.4614 78.6665 22.6667 78.6665H57.3335C59.5388 78.6665 61.3335 76.8718 61.3335 74.6665C61.3335 72.4612 59.5386 70.6665 57.3333 70.6665ZM57.3333 75.9998H22.6667C21.9308 75.9998 21.3335 75.4012 21.3335 74.6665C21.3335 73.9318 21.9308 73.3332 22.6667 73.3332H57.3335C58.0694 73.3332 58.6667 73.9318 58.6667 74.6665C58.6667 75.4012 58.0694 75.9998 57.3333 75.9998Z" fill="white"/>
<path d="M54.6666 70.6661C50.2425 70.6661 47.9998 67.5261 47.9998 61.3328C47.9998 60.5969 47.4025 59.9995 46.6666 59.9995H33.3333C32.5973 59.9995 32 60.5969 32 61.3328C32 67.5261 29.7573 70.6661 25.3333 70.6661C24.5973 70.6661 24 71.2634 24 71.9994C24 72.7353 24.5973 73.3326 25.3333 73.3326H54.6666C55.4025 73.3326 55.9998 72.7353 55.9998 71.9994C55.9998 71.2634 55.4025 70.6661 54.6666 70.6661ZM31.8278 70.6661C33.4692 68.8475 34.4358 66.1394 34.6305 62.6661H45.3705C45.5637 66.1394 46.5305 68.8475 48.1731 70.6661H31.8278Z" fill="white"/>
<path d="M63.712 40.6181L60.4934 37.3995L62.2841 35.6089C62.6161 35.2769 62.7494 34.7942 62.6347 34.3395C62.52 33.8848 62.1747 33.5248 61.7253 33.3889L48.392 29.3889C47.9214 29.2475 47.4134 29.3769 47.0667 29.7236C46.7188 30.0703 46.5908 30.5795 46.732 31.0489L50.732 44.3822C50.8667 44.8328 51.228 45.1781 51.6827 45.2928C52.1359 45.4048 52.62 45.274 52.952 44.9422L54.8373 43.0555L58.0559 46.2755C58.3053 46.5261 58.6453 46.6661 58.9986 46.6661C59.3519 46.6661 59.6919 46.5261 59.9412 46.2755L63.7119 42.5034C64.2333 41.9822 64.2333 41.1395 63.712 40.6181ZM58.9986 43.4475L56.068 40.5155C55.728 40.1755 55.2827 40.0061 54.8373 40.0061C54.3906 40.0061 53.9453 40.1767 53.6067 40.514L52.6441 41.4767L49.9974 32.654L58.82 35.3008L57.788 36.3328C57.5039 36.6181 57.348 36.9969 57.348 37.3995C57.348 37.8036 57.5053 38.1848 57.7906 38.4675L60.8839 41.5608L58.9986 43.4475Z" fill="white"/>
<path d="M55.9998 11.9995H18.6665C17.9306 11.9995 17.3333 12.5969 17.3333 13.3328V19.9996C17.3333 20.7356 17.9306 21.3329 18.6665 21.3329H55.9998C56.7358 21.3329 57.3331 20.7356 57.3331 19.9996V13.3328C57.3331 12.5969 56.7358 11.9995 55.9998 11.9995ZM54.6665 18.6663H19.9998V14.6663H54.6665V18.6663Z" fill="white"/>
<path d="M34.6667 26.6665H24C23.2641 26.6665 22.6667 27.2638 22.6667 27.9998V33.3331C22.6667 34.069 23.2641 34.6663 24 34.6663H34.6667C35.4027 34.6663 36 34.069 36 33.3331V27.9998C36 27.2638 35.4027 26.6665 34.6667 26.6665ZM33.3333 31.9998H25.3333V29.3331H33.3333V31.9998Z" fill="white"/>
<path d="M55.9998 11.9995H18.6665C17.9306 11.9995 17.3333 12.5969 17.3333 13.3328V38.6661C17.3333 39.402 17.9306 39.9994 18.6665 39.9994H50.4079C50.8306 39.9994 51.2265 39.8008 51.4773 39.462C51.7293 39.1234 51.8067 38.6861 51.6853 38.282L49.9973 32.654L55.6173 34.3408C56.0214 34.4622 56.4587 34.3848 56.7959 34.1328C57.1345 33.8822 57.3333 33.4848 57.3333 33.0634V13.3328C57.3331 12.5969 56.7358 11.9995 55.9998 11.9995ZM54.6665 31.2715L48.3904 29.3889C47.9198 29.2475 47.4118 29.3769 47.0651 29.7236C46.7172 30.0715 46.5892 30.5795 46.7304 31.0503L48.6158 37.333H19.9998V14.6662H54.6665V31.2715Z" fill="white"/>
</svg>
