<svg width="80" height="80" viewBox="0 0 80 80" fill="none" xmlns="http://www.w3.org/2000/svg">
<path d="M75 66.5751V38.7501C74.996 34.4416 73.2827 30.3106 70.2361 27.264C67.1895 24.2174 63.0585 22.5041 58.75 22.5001H57.3625C56.5917 21.7466 55.6892 21.1408 54.7 20.7126L55.6875 17.0001C55.7313 16.8425 55.7434 16.6778 55.723 16.5155C55.7026 16.3532 55.6502 16.1966 55.5688 16.0547C55.4874 15.9128 55.3786 15.7885 55.2488 15.689C55.119 15.5895 54.9707 15.5168 54.8125 15.4751L51.1875 14.5001L52.1625 10.8751C52.4333 10.7637 52.6964 10.6342 52.95 10.4876C53.6636 10.0795 54.2886 9.53319 54.7887 8.88074C55.2888 8.22829 55.6538 7.48274 55.8625 6.68762C55.9468 6.36943 55.9023 6.03081 55.7384 5.74529C55.5746 5.45977 55.3048 5.25039 54.9875 5.16262L42.9125 1.92513C42.591 1.83954 42.2486 1.88489 41.9604 2.05123C41.6722 2.21758 41.4617 2.49137 41.375 2.81262C41.1612 3.60445 41.1064 4.43076 41.2137 5.24388C41.321 6.05701 41.5882 6.84083 42 7.55012C42.1523 7.79741 42.3192 8.03534 42.5 8.26262L41.525 11.9126L37.9 10.9376C37.5801 10.8537 37.24 10.9 36.9542 11.0664C36.6684 11.2327 36.4601 11.5055 36.375 11.8251L29.9 35.9751C29.8567 36.1335 29.8454 36.299 29.8668 36.4618C29.8881 36.6247 29.9416 36.7816 30.0242 36.9236C30.1068 37.0655 30.2169 37.1896 30.3479 37.2886C30.4789 37.3876 30.6284 37.4595 30.7875 37.5001L33.2 38.1501L32.2375 41.7751C32.1488 42.0943 32.1892 42.4355 32.35 42.7251C32.5219 43.0067 32.7945 43.2122 33.1125 43.3001L34.325 43.6251L33.35 47.2501C33.2656 47.5709 33.3105 47.9121 33.475 48.2001C33.5573 48.342 33.6671 48.466 33.7981 48.5647C33.9291 48.6635 34.0785 48.735 34.2375 48.7751L39.0625 50.0751C39.1691 50.0999 39.2781 50.1125 39.3875 50.1126C39.6068 50.1167 39.823 50.0605 40.0125 49.9501C40.156 49.8682 40.2817 49.7586 40.3826 49.6277C40.4834 49.4968 40.5573 49.3472 40.6 49.1876L41.5625 45.5626L42.775 45.8876C42.8795 45.9234 42.9896 45.9403 43.1 45.9376C43.3202 45.9358 43.5359 45.8754 43.725 45.7626C43.8668 45.6833 43.991 45.5759 44.0899 45.4469C44.1888 45.318 44.2603 45.1702 44.3 45.0126L45.275 41.3876L47.6875 42.0251C47.7925 42.0591 47.9022 42.076 48.0125 42.0751C48.2883 42.0763 48.5568 41.9863 48.7762 41.819C48.9955 41.6516 49.1533 41.4165 49.225 41.1501L50.2125 37.4376C50.557 37.4768 50.9033 37.4976 51.25 37.5001C53.5266 37.4877 55.7093 36.5913 57.3375 35.0001H58.75C59.7436 35.0031 60.6958 35.3991 61.3984 36.1017C62.101 36.8044 62.497 37.7565 62.5 38.7501V57.4626L50 57.5001V56.2501C50 55.9186 49.8683 55.6007 49.6339 55.3662C49.3995 55.1318 49.0815 55.0001 48.75 55.0001H26.25C25.9185 55.0001 25.6005 55.1318 25.3661 55.3662C25.1317 55.6007 25 55.9186 25 56.2501V61.2501C25 61.5816 25.1317 61.8996 25.3661 62.134C25.6005 62.3684 25.9185 62.5001 26.25 62.5001H48.75C49.0815 62.5001 49.3995 62.3684 49.6339 62.134C49.8683 61.8996 50 61.5816 50 61.2501V60.0001L62.5 59.9626V65.0001H18.75C16.4302 65.0028 14.2061 65.9255 12.5657 67.5659C10.9254 69.2062 10.0026 71.4303 10 73.7501V76.2501C10 76.5816 10.1317 76.8996 10.3661 77.134C10.6005 77.3684 10.9185 77.5001 11.25 77.5001H77.5C77.8315 77.5001 78.1495 77.3684 78.3839 77.134C78.6183 76.8996 78.75 76.5816 78.75 76.2501V73.7501C78.748 72.3407 78.4061 70.9526 77.7533 69.7036C77.1005 68.4545 76.156 67.3813 75 66.5751ZM52.925 7.20013C52.6051 7.66128 52.1867 8.04555 51.7 8.32512C51.2757 8.57319 50.8063 8.73413 50.319 8.79852C49.8318 8.86292 49.3366 8.82946 48.8625 8.70012L46.45 8.05012C45.6997 7.85226 45.0295 7.42592 44.5323 6.83016C44.035 6.2344 43.7355 5.49874 43.675 4.72512L52.925 7.20013ZM49.45 11.3001L48.775 13.8501L43.9375 12.5626L44.625 10.0251C45.0034 10.2043 45.3965 10.3506 45.8 10.4626L48.2125 11.1126C48.6174 11.2177 49.0321 11.2806 49.45 11.3001ZM38.5 47.3376L36.0875 46.6876L36.7375 44.2751L38.675 44.7876L39.15 44.9251L38.5 47.3376ZM42.2125 43.1501L34.975 41.2126L35.6125 38.8001L42.8625 40.7376L42.2125 43.1501ZM47.1375 39.2876L32.6375 35.4126L38.4625 13.6751L52.95 17.5626L52.2875 20.0751C50.1995 19.8255 48.0914 20.3362 46.3491 21.5138C44.6068 22.6914 43.3469 24.4571 42.8 26.4876C42.2569 28.5188 42.4633 30.6775 43.3815 32.5689C44.2997 34.4603 45.8682 35.9579 47.8 36.7876L47.1375 39.2876ZM57.2875 30.3626C56.9683 31.5571 56.302 32.63 55.3729 33.4456C54.4438 34.2613 53.2936 34.7831 52.0679 34.945C50.8422 35.1069 49.596 34.9017 48.487 34.3552C47.378 33.8088 46.4559 32.9457 45.8375 31.8751C45.4232 31.1668 45.1544 30.3829 45.0471 29.5694C44.9398 28.7559 44.996 27.9291 45.2125 27.1376C45.5677 25.8076 46.352 24.6321 47.4437 23.7936C48.5354 22.955 49.8734 22.5003 51.25 22.5001C51.7947 22.4969 52.3372 22.5684 52.8625 22.7126C54.0586 23.0296 55.1334 23.6954 55.95 24.6251V24.6376C56.2222 24.9403 56.4611 25.2714 56.6625 25.6251C57.0768 26.3334 57.3456 27.1173 57.4529 27.9308C57.5602 28.7444 57.504 29.5711 57.2875 30.3626ZM47.5 60.0001H27.5V57.5001H47.5V60.0001ZM59.125 32.5376C59.3682 32.0502 59.5609 31.5392 59.7 31.0126C60.2469 29.0171 60.0561 26.8913 59.1625 25.0251C62.7329 25.1323 66.1215 26.6247 68.6109 29.1864C71.1003 31.7481 72.4951 35.1781 72.5 38.7501V65.3626C71.6876 65.126 70.8461 65.0039 70 65.0001H65V38.7501C64.9954 37.1614 64.3851 35.6341 63.2935 34.4798C62.2018 33.3254 60.711 32.6308 59.125 32.5376ZM76.25 75.0001H12.5V73.7501C12.5 72.0925 13.1585 70.5028 14.3306 69.3307C15.5027 68.1586 17.0924 67.5001 18.75 67.5001H70C71.6576 67.5001 73.2473 68.1586 74.4194 69.3307C75.5915 70.5028 76.25 72.0925 76.25 73.7501V75.0001Z" fill="white"/>
<path d="M16.25 48.7499C16.25 49.7444 16.6451 50.6982 17.3484 51.4015C18.0516 52.1048 19.0054 52.4999 20 52.4999H30C30.3315 52.4999 30.6495 52.3682 30.8839 52.1337C31.1183 51.8993 31.25 51.5814 31.25 51.2499C31.25 50.9183 31.1183 50.6004 30.8839 50.366C30.6495 50.1316 30.3315 49.9999 30 49.9999H20C19.6685 49.9999 19.3505 49.8682 19.1161 49.6337C18.8817 49.3993 18.75 49.0814 18.75 48.7499V32.4361C22.6065 32.1136 26.1891 30.3131 28.7491 27.4109C31.3091 24.5087 32.6484 20.7293 32.487 16.8627C32.3256 12.9962 30.676 9.34157 27.8831 6.66278C25.0902 3.98398 21.37 2.48828 17.5 2.48828C13.6301 2.48828 9.90987 3.98398 7.11693 6.66278C4.32399 9.34157 2.67445 12.9962 2.51306 16.8627C2.35167 20.7293 3.69093 24.5087 6.25092 27.4109C8.81091 30.3131 12.3935 32.1136 16.25 32.4361V48.7499ZM5.00001 17.4999C5.00001 15.0276 5.73312 12.6108 7.10664 10.5552C8.48016 8.49961 10.4324 6.89746 12.7165 5.95136C15.0005 5.00527 17.5139 4.75773 19.9386 5.24004C22.3634 5.72236 24.5907 6.91287 26.3388 8.66102C28.087 10.4092 29.2775 12.6365 29.7598 15.0612C30.2421 17.486 29.9946 19.9993 29.0485 22.2834C28.1024 24.5675 26.5003 26.5197 24.4446 27.8932C22.389 29.2667 19.9723 29.9999 17.5 29.9999C14.1859 29.9962 11.0086 28.6781 8.6652 26.3347C6.32178 23.9913 5.00365 20.8139 5.00001 17.4999Z" fill="white"/>
<path d="M20 25C20 24.6685 19.8683 24.3505 19.6339 24.1161C19.3995 23.8817 19.0815 23.75 18.75 23.75V22.3225C19.1975 22.2065 19.6264 22.0276 20.0237 21.7913L21.035 22.8025C20.9189 22.9186 20.8267 23.0563 20.7638 23.208C20.701 23.3597 20.6686 23.5222 20.6685 23.6864C20.6684 23.8506 20.7007 24.0132 20.7635 24.1649C20.8263 24.3166 20.9183 24.4545 21.0344 24.5706C21.1504 24.6868 21.2882 24.7789 21.4399 24.8418C21.5916 24.9047 21.7541 24.9371 21.9183 24.9371C22.0825 24.9372 22.2451 24.9049 22.3968 24.8421C22.5485 24.7793 22.6864 24.6873 22.8025 24.5712L24.5712 22.8038C24.8058 22.5694 24.9376 22.2514 24.9378 21.9198C24.9379 21.5882 24.8063 21.2702 24.5719 21.0356C24.3375 20.8011 24.0195 20.6692 23.6879 20.6691C23.3564 20.669 23.0383 20.8006 22.8038 21.035L21.7925 20.0225C22.0283 19.6255 22.2068 19.197 22.3225 18.75H23.75C23.75 19.0815 23.8817 19.3995 24.1161 19.6339C24.3505 19.8683 24.6685 20 25 20C25.3315 20 25.6495 19.8683 25.8839 19.6339C26.1183 19.3995 26.25 19.0815 26.25 18.75V16.25C26.25 15.9185 26.1183 15.6005 25.8839 15.3661C25.6495 15.1317 25.3315 15 25 15C24.6685 15 24.3505 15.1317 24.1161 15.3661C23.8817 15.6005 23.75 15.9185 23.75 16.25H22.3225C22.2065 15.8025 22.0276 15.3736 21.7913 14.9762L22.8025 13.9637C23.0371 14.1981 23.3551 14.3297 23.6867 14.3296C24.0183 14.3295 24.3362 14.1977 24.5706 13.9631C24.805 13.7286 24.9366 13.4105 24.9365 13.0789C24.9364 12.7473 24.8046 12.4294 24.57 12.195L22.8025 10.4288C22.568 10.1944 22.2499 10.0628 21.9183 10.0629C21.5867 10.063 21.2688 10.1948 21.0344 10.4294C20.8 10.6639 20.6684 10.982 20.6685 11.3136C20.6686 11.6452 20.8004 11.9631 21.035 12.1975L20.0237 13.2088C19.6264 12.9724 19.1975 12.7935 18.75 12.6775V11.25C19.0815 11.25 19.3995 11.1183 19.6339 10.8839C19.8683 10.6495 20 10.3315 20 10C20 9.66848 19.8683 9.35054 19.6339 9.11612C19.3995 8.8817 19.0815 8.75 18.75 8.75H16.25C15.9185 8.75 15.6005 8.8817 15.3661 9.11612C15.1317 9.35054 15 9.66848 15 10C15 10.3315 15.1317 10.6495 15.3661 10.8839C15.6005 11.1183 15.9185 11.25 16.25 11.25V12.6775C15.8025 12.7935 15.3736 12.9724 14.9762 13.2088L13.965 12.1975C14.0811 12.0814 14.1733 11.9437 14.2362 11.792C14.299 11.6403 14.3314 11.4778 14.3315 11.3136C14.3316 11.1494 14.2993 10.9868 14.2365 10.8351C14.1737 10.6834 14.0817 10.5455 13.9656 10.4294C13.8496 10.3132 13.7118 10.2211 13.5601 10.1582C13.4084 10.0953 13.2459 10.0629 13.0817 10.0629C12.9175 10.0628 12.7549 10.0951 12.6032 10.1579C12.4515 10.2206 12.3136 10.3127 12.1975 10.4288L10.4288 12.1962C10.1942 12.4306 10.0624 12.7486 10.0622 13.0802C10.0621 13.4118 10.1937 13.7298 10.4281 13.9644C10.6625 14.1989 10.9805 14.3308 11.3121 14.3309C11.6436 14.331 11.9617 14.1994 12.1962 13.965L13.2075 14.9775C12.9717 15.3745 12.7932 15.803 12.6775 16.25H11.25C11.25 15.9185 11.1183 15.6005 10.8839 15.3661C10.6495 15.1317 10.3315 15 10 15C9.66848 15 9.35054 15.1317 9.11612 15.3661C8.8817 15.6005 8.75 15.9185 8.75 16.25V18.75C8.75 19.0815 8.8817 19.3995 9.11612 19.6339C9.35054 19.8683 9.66848 20 10 20C10.3315 20 10.6495 19.8683 10.8839 19.6339C11.1183 19.3995 11.25 19.0815 11.25 18.75H12.6775C12.7935 19.1975 12.9724 19.6264 13.2088 20.0237L12.1975 21.0363C11.9629 20.8019 11.6449 20.6703 11.3133 20.6704C10.9817 20.6705 10.6638 20.8023 10.4294 21.0369C10.195 21.2714 10.0634 21.5895 10.0635 21.9211C10.0636 22.2527 10.1954 22.5706 10.43 22.805L12.1987 24.5725C12.3149 24.6886 12.4527 24.7806 12.6045 24.8434C12.7562 24.9062 12.9188 24.9384 13.0829 24.9384C13.2471 24.9383 13.4097 24.9059 13.5614 24.843C13.713 24.7802 13.8508 24.688 13.9669 24.5719C14.0829 24.4557 14.175 24.3179 14.2378 24.1662C14.3005 24.0145 14.3328 23.8519 14.3328 23.6877C14.3327 23.5235 14.3003 23.3609 14.2374 23.2093C14.1745 23.0576 14.0824 22.9198 13.9663 22.8038L14.9775 21.7925C15.3745 22.0283 15.803 22.2068 16.25 22.3225V23.75C15.9185 23.75 15.6005 23.8817 15.3661 24.1161C15.1317 24.3505 15 24.6685 15 25C15 25.3315 15.1317 25.6495 15.3661 25.8839C15.6005 26.1183 15.9185 26.25 16.25 26.25H18.75C19.0815 26.25 19.3995 26.1183 19.6339 25.8839C19.8683 25.6495 20 25.3315 20 25ZM15 17.5C15 17.0055 15.1466 16.5222 15.4213 16.1111C15.696 15.7 16.0865 15.3795 16.5433 15.1903C17.0001 15.0011 17.5028 14.9516 17.9877 15.048C18.4727 15.1445 18.9181 15.3826 19.2678 15.7322C19.6174 16.0819 19.8555 16.5273 19.952 17.0123C20.0484 17.4972 19.9989 17.9999 19.8097 18.4567C19.6205 18.9135 19.3 19.304 18.8889 19.5787C18.4778 19.8534 17.9945 20 17.5 20C16.837 20 16.2011 19.7366 15.7322 19.2678C15.2634 18.7989 15 18.163 15 17.5Z" fill="white"/>
<path d="M51.25 32.5C50.5083 32.5 49.7833 32.2801 49.1666 31.868C48.5499 31.456 48.0693 30.8703 47.7855 30.1851C47.5016 29.4998 47.4274 28.7458 47.5721 28.0184C47.7168 27.291 48.0739 26.6228 48.5984 26.0984C49.1228 25.5739 49.791 25.2168 50.5184 25.0721C51.2458 24.9274 51.9998 25.0016 52.6851 25.2855C53.3703 25.5693 53.956 26.0499 54.368 26.6666C54.7801 27.2833 55 28.0083 55 28.75C55 29.7446 54.6049 30.6984 53.9017 31.4017C53.1984 32.1049 52.2446 32.5 51.25 32.5ZM51.25 27.5C51.0028 27.5 50.7611 27.5733 50.5555 27.7107C50.35 27.848 50.1898 28.0432 50.0952 28.2716C50.0005 28.5001 49.9758 28.7514 50.024 28.9939C50.0723 29.2363 50.1913 29.4591 50.3661 29.6339C50.5409 29.8087 50.7637 29.9278 51.0061 29.976C51.2486 30.0242 51.5 29.9995 51.7284 29.9049C51.9568 29.8102 52.152 29.65 52.2893 29.4445C52.4267 29.2389 52.5 28.9972 52.5 28.75C52.5 28.4185 52.3683 28.1005 52.1339 27.8661C51.8995 27.6317 51.5815 27.5 51.25 27.5Z" fill="white"/>
</svg>
