<svg width="20" height="20" viewBox="0 0 20 20" fill="none" xmlns="http://www.w3.org/2000/svg">
<g clip-path="url(#clip0)">
<path d="M10.8336 19.1536C15.8876 19.1536 20 15.0413 20 9.98733C20 4.93332 15.8876 0.8209 10.8336 0.8209C9.07612 0.8209 7.36627 1.32168 5.88881 2.26998C5.59875 2.45674 5.51376 2.84339 5.70052 3.13421C5.88789 3.42504 6.27377 3.50911 6.5646 3.3225C7.83958 2.50328 9.31613 2.07086 10.8336 2.07086C15.1985 2.07086 18.75 5.62239 18.75 9.98733C18.75 14.3521 15.1985 17.9036 10.8336 17.9036C6.46877 17.9036 2.91725 14.3521 2.91725 9.98733C2.91725 9.72641 2.92976 9.46809 2.95387 9.21404C2.98713 8.86981 2.73552 8.5648 2.39221 8.53154C2.04722 8.4998 1.74312 8.74988 1.70971 9.09319C1.68148 9.38737 1.66729 9.68567 1.66729 9.98733C1.66729 15.0413 5.77956 19.1536 10.8336 19.1536Z" fill="white"/>
<path d="M9.79207 12.0705C9.95197 12.0705 10.112 12.0097 10.2336 11.8873L13.9835 8.13741C14.2277 7.89313 14.2277 7.49733 13.9835 7.25319C13.7394 7.00906 13.3436 7.00906 13.0995 7.25319L9.79115 10.5615L1.06737 1.83756C0.82308 1.59342 0.427279 1.59342 0.183146 1.83756C-0.0609865 2.08169 -0.0609865 2.47749 0.183146 2.72162L9.34958 11.8881C9.4721 12.0097 9.63201 12.0705 9.79207 12.0705Z" fill="white"/>
</g>
<defs>
<clipPath id="clip0">
<rect width="20" height="20" fill="white" transform="matrix(-1 0 0 1 20 0)"/>
</clipPath>
</defs>
</svg>
