<svg width="80" height="80" viewBox="0 0 80 80" fill="none" xmlns="http://www.w3.org/2000/svg">
<g clip-path="url(#clip0)">
<path d="M33.0943 73.0945C22.1679 73.0945 12.4609 67.7712 6.43071 59.583C6.3351 59.4794 6.25025 59.3636 6.17957 59.2374C2.29141 53.8126 0 47.1685 0 40.0004C0 32.8322 2.29141 26.1879 6.17957 20.7633C6.25025 20.6371 6.33488 20.5213 6.43048 20.418C12.4607 12.2295 22.1679 6.90625 33.0943 6.90625C33.0946 6.90625 33.0941 6.90625 33.0943 6.90625C46.3293 6.90625 58.2648 14.7615 63.5015 26.918C63.9014 27.8462 63.473 28.9228 62.545 29.3226C61.6164 29.7222 60.5402 29.294 60.1406 28.3658C59.4494 26.7613 58.6276 25.2421 57.6898 23.8164C54.0717 24.9466 50.2456 25.8214 46.3014 26.426C46.9914 30.0904 47.397 34.0614 47.4898 38.1705H50.1408C51.1513 38.1705 51.9706 38.9898 51.9706 40.0004C51.9706 41.0109 51.1513 41.8302 50.1408 41.8302H47.4898C47.3112 49.7257 45.9784 57.1109 43.6918 62.7911C41.017 69.4352 37.2533 73.0945 33.0943 73.0945ZM24.3336 56.6905C26.436 64.6125 29.8811 69.4348 33.0943 69.4348C36.308 69.4348 39.7538 64.6111 41.8562 56.6864C36.0895 56.0878 30.0959 56.0885 24.3336 56.6905ZM10.8781 59.2893C14.686 63.669 19.7654 66.9169 25.5351 68.4513C24.417 66.9185 23.3955 65.0233 22.4969 62.7911C21.7999 61.0599 21.1913 59.1699 20.6773 57.1557C17.2983 57.6633 14.011 58.3778 10.8781 59.2893ZM3.71593 41.8302C4.04095 47.107 5.76305 52.0118 8.51535 56.1793C12.1284 55.0512 15.9488 54.1786 19.8871 53.5745C19.197 49.9103 18.7915 45.9391 18.6986 41.83H3.71593V41.8302ZM22.3585 41.8302C22.4541 45.9418 22.8699 49.7298 23.5168 53.0981C29.8153 52.4073 36.3752 52.4068 42.6726 53.0933C43.319 49.7257 43.7341 45.9409 43.8299 41.8304H22.3585V41.8302ZM22.3585 38.1705H43.8297C43.7341 34.0589 43.3183 30.2709 42.6717 26.9026C36.3702 27.5936 29.8182 27.5936 23.5168 26.9026C22.8701 30.2707 22.4543 34.0589 22.3585 38.1705ZM3.71593 38.1705H18.6984C18.7915 34.0614 19.197 30.0902 19.8868 26.426C15.9486 25.8219 12.1284 24.9493 8.51512 23.8212C5.76283 27.9889 4.04095 32.8935 3.71593 38.1705ZM24.3336 23.31C30.0994 23.9125 36.0891 23.9122 41.8551 23.3102C39.7529 15.3866 36.3077 10.5657 33.0943 10.5657C29.8811 10.5657 26.436 15.388 24.3336 23.31ZM40.6531 11.5488C41.7714 13.0817 42.7929 14.9769 43.6918 17.2096C44.3887 18.9408 44.9972 20.831 45.5113 22.8452C48.8984 22.3361 52.193 21.6197 55.3332 20.7052C51.4766 16.2606 46.3606 13.0623 40.6531 11.5488ZM10.8781 20.7112C14.0112 21.6224 17.2983 22.337 20.6771 22.8448C21.1913 20.8306 21.7997 18.9408 22.4966 17.2093C23.3953 14.9772 24.417 13.0819 25.5348 11.5492C19.7654 13.0838 14.686 16.3315 10.8781 20.7112ZM47.8327 72.9673C47.6838 72.9673 47.5333 72.949 47.3846 72.9112C47.2355 72.8735 47.0937 72.8177 46.9615 72.7459C46.6753 72.591 46.4441 72.368 46.2806 72.1052C46.1561 71.9062 46.0687 71.6811 46.0285 71.4407C45.9935 71.2347 45.9937 71.0206 46.0328 70.8079C46.0582 70.6681 46.0994 70.5338 46.1548 70.4069L49.6447 61.8053C51.2529 57.8433 54.1459 52.5759 60.6751 52.5759H65.3273C71.8568 52.5759 74.7498 57.843 76.3577 61.8051L79.8653 70.449C80.2452 71.3854 79.7941 72.4526 78.8577 72.8326C78.8486 72.8364 78.8392 72.8399 78.8298 72.8435C78.8294 72.8438 78.8289 72.844 78.8282 72.8442C78.8273 72.8447 78.8262 72.8451 78.825 72.8454C78.8239 72.8458 78.8227 72.8463 78.8214 72.847C78.8209 72.847 78.8207 72.8472 78.8202 72.8474C78.8186 72.8479 78.817 72.8486 78.8154 72.8493C78.8102 72.8513 78.8049 72.8534 78.7996 72.855V72.8552C78.7983 72.8557 78.7967 72.8561 78.7953 72.8568C78.7948 72.8568 78.7944 72.857 78.7937 72.8573C78.7928 72.8577 78.7918 72.8579 78.7909 72.8582C78.79 72.8586 78.7889 72.8591 78.7877 72.8596C78.7875 72.8596 78.7873 72.8595 78.7868 72.8598C78.567 72.9387 78.3403 72.9712 78.1196 72.9668H47.8833C47.8663 72.9671 47.8494 72.9673 47.8327 72.9673ZM50.5505 69.3069H75.4524L72.9668 63.1813C70.9911 58.3131 68.7065 56.2358 65.328 56.2358H60.6754C57.2968 56.2358 55.0121 58.3131 53.0361 63.1816L50.5505 69.3069ZM63.0011 49.6573C58.5864 49.6573 54.9949 46.0656 54.9949 41.6509C54.9949 37.2362 58.5864 33.6447 63.0011 33.6447C67.4156 33.6447 71.0071 37.2362 71.0071 41.6509C71.0071 46.0656 67.4158 49.6573 63.0011 49.6573ZM63.0011 37.3043C60.6042 37.3043 58.6546 39.254 58.6546 41.6509C58.6546 44.0477 60.6042 45.9976 63.0011 45.9976C65.3977 45.9976 67.3474 44.0477 67.3474 41.6509C67.3474 39.254 65.3977 37.3043 63.0011 37.3043Z" fill="white"/>
</g>
<defs>
<clipPath id="clip0">
<rect width="80" height="80" fill="white"/>
</clipPath>
</defs>
</svg>
